<svg width="267" height="49" viewBox="0 0 267 49" fill="none" xmlns="http://www.w3.org/2000/svg">
<path d="M39.44 11L32.92 30.84L26.52 11H20.52L13.92 30.68L7.6 11H0.88L10.08 39H17L23.36 20.04L29.52 39H36.48L45.64 11H39.44ZM62.4659 39.48C71.2659 39.48 77.7859 33.36 77.7859 25C77.7859 16.64 71.2659 10.52 62.4659 10.52C53.6259 10.52 47.1459 16.68 47.1459 25C47.1459 33.32 53.6259 39.48 62.4659 39.48ZM62.4659 33.96C57.4659 33.96 53.7059 30.32 53.7059 25C53.7059 19.68 57.4659 16.04 62.4659 16.04C67.4659 16.04 71.2259 19.68 71.2259 25C71.2259 30.32 67.4659 33.96 62.4659 33.96ZM107.456 39L101.176 30C104.816 28.44 106.936 25.36 106.936 21.16C106.936 14.88 102.256 11 94.7759 11H82.6559V39H89.1359V31.2H94.7759H95.0959L100.496 39H107.456ZM100.376 21.16C100.376 24.2 98.3759 26.04 94.4159 26.04H89.1359V16.28H94.4159C98.3759 16.28 100.376 18.08 100.376 21.16ZM112.07 39H124.79C133.95 39 140.23 33.48 140.23 25C140.23 16.52 133.95 11 124.79 11H112.07V39ZM118.55 33.68V16.32H124.47C130.03 16.32 133.67 19.64 133.67 25C133.67 30.36 130.03 33.68 124.47 33.68H118.55ZM145.117 39H165.637V33.72H151.597V11H145.117V39ZM175.698 33.8V27.32H188.698V22.28H175.698V16.2H190.418V11H169.258V39H190.938V33.8H175.698Z" fill="#D7DADC"/>
<rect x="209" y="9" width="58" height="31" rx="10" fill="#56904E"/>
<path d="M223.756 20.6V23.912H219.94V20.6H217.996V29H219.94V25.556H223.756V29H225.7V20.6H223.756ZM233.879 25.796C233.879 23.72 232.415 22.448 230.519 22.448C228.551 22.448 227.075 23.84 227.075 25.772C227.075 27.692 228.527 29.096 230.759 29.096C231.923 29.096 232.823 28.736 233.423 28.052L232.427 26.972C231.983 27.392 231.491 27.596 230.807 27.596C229.823 27.596 229.139 27.104 228.959 26.3H233.843C233.855 26.144 233.879 25.94 233.879 25.796ZM230.531 23.864C231.371 23.864 231.983 24.392 232.115 25.208H228.935C229.067 24.38 229.679 23.864 230.531 23.864ZM235.126 29H236.998V20.096H235.126V29ZM242.551 22.448C241.687 22.448 240.991 22.724 240.523 23.288V22.544H238.735V31.328H240.607V28.316C241.087 28.844 241.747 29.096 242.551 29.096C244.363 29.096 245.767 27.8 245.767 25.772C245.767 23.744 244.363 22.448 242.551 22.448ZM242.227 27.56C241.291 27.56 240.583 26.888 240.583 25.772C240.583 24.656 241.291 23.984 242.227 23.984C243.163 23.984 243.871 24.656 243.871 25.772C243.871 26.888 243.163 27.56 242.227 27.56ZM253.344 25.796C253.344 23.72 251.88 22.448 249.984 22.448C248.016 22.448 246.54 23.84 246.54 25.772C246.54 27.692 247.992 29.096 250.224 29.096C251.388 29.096 252.288 28.736 252.888 28.052L251.892 26.972C251.448 27.392 250.956 27.596 250.272 27.596C249.288 27.596 248.604 27.104 248.424 26.3H253.308C253.32 26.144 253.344 25.94 253.344 25.796ZM249.996 23.864C250.836 23.864 251.448 24.392 251.58 25.208H248.4C248.532 24.38 249.144 23.864 249.996 23.864ZM256.379 23.396V22.544H254.591V29H256.463V25.952C256.463 24.716 257.147 24.152 258.179 24.152C258.323 24.152 258.443 24.164 258.599 24.176V22.448C257.603 22.448 256.835 22.772 256.379 23.396Z" fill="#D7DADC"/>
</svg>
