<svg width="32" height="32" viewBox="0 0 32 32" fill="none" xmlns="http://www.w3.org/2000/svg">
<path d="M18.436 32H12.612C12.2471 32.0001 11.8932 31.8754 11.6088 31.6466C11.3245 31.4179 11.1269 31.0989 11.0488 30.7424L10.3976 27.728C9.52893 27.3474 8.70521 26.8714 7.94163 26.3088L5.00243 27.2448C4.65453 27.3557 4.27915 27.3443 3.93863 27.2125C3.5981 27.0807 3.31292 26.8363 3.13043 26.52L0.212034 21.4784C0.0314662 21.1618 -0.0363143 20.7933 0.0197815 20.4332C0.0758773 20.0731 0.252528 19.7427 0.520834 19.496L2.80083 17.416C2.69715 16.4738 2.69715 15.523 2.80083 14.5808L0.520834 12.5056C0.252148 12.2588 0.075257 11.9281 0.0191521 11.5677C-0.0369529 11.2072 0.0310566 10.8384 0.212034 10.5216L3.12403 5.4768C3.30652 5.1605 3.5917 4.91615 3.93223 4.7843C4.27275 4.65246 4.64813 4.64106 4.99603 4.752L7.93523 5.688C8.32563 5.4 8.73203 5.1312 9.15123 4.888C9.55603 4.6608 9.97203 4.4544 10.3976 4.2704L11.0504 1.2592C11.1281 0.902716 11.3254 0.5835 11.6094 0.354478C11.8934 0.125456 12.2472 0.000383945 12.612 0H18.436C18.8009 0.000383945 19.1547 0.125456 19.4387 0.354478C19.7227 0.5835 19.9199 0.902716 19.9976 1.2592L20.6568 4.272C21.1048 4.4704 21.5432 4.6928 21.9672 4.9408C22.3624 5.1696 22.7448 5.4208 23.1128 5.6912L26.0536 4.7552C26.4013 4.64467 26.7763 4.65627 27.1165 4.7881C27.4567 4.91992 27.7416 5.16405 27.924 5.48L30.836 10.5248C31.2072 11.176 31.0792 12 30.5272 12.5072L28.2472 14.5872C28.3509 15.5294 28.3509 16.4802 28.2472 17.4224L30.5272 19.5024C31.0792 20.0112 31.2072 20.8336 30.836 21.4848L27.924 26.5296C27.7415 26.8459 27.4564 27.0903 27.1158 27.2221C26.7753 27.3539 26.3999 27.3653 26.052 27.2544L23.1128 26.3184C22.3498 26.8806 21.5266 27.356 20.6584 27.736L19.9976 30.7424C19.9196 31.0986 19.7222 31.4174 19.4383 31.6461C19.1543 31.8749 18.8007 31.9997 18.436 32V32ZM15.5176 9.6C13.8202 9.6 12.1924 10.2743 10.9921 11.4745C9.79192 12.6747 9.11763 14.3026 9.11763 16C9.11763 17.6974 9.79192 19.3253 10.9921 20.5255C12.1924 21.7257 13.8202 22.4 15.5176 22.4C17.215 22.4 18.8429 21.7257 20.0431 20.5255C21.2433 19.3253 21.9176 17.6974 21.9176 16C21.9176 14.3026 21.2433 12.6747 20.0431 11.4745C18.8429 10.2743 17.215 9.6 15.5176 9.6V9.6Z" fill="#565758"/>
</svg>
